<?xml version="1.0" standalone="no"?>
<!DOCTYPE svg PUBLIC "-//W3C//DTD SVG 20010904//EN"
 "http://www.w3.org/TR/2001/REC-SVG-20010904/DTD/svg10.dtd">
<svg version="1.0" xmlns="http://www.w3.org/2000/svg"
 width="1024.000000pt" height="1024.000000pt" viewBox="0 0 1024.000000 1024.000000"
 preserveAspectRatio="xMidYMid meet">

<g transform="translate(0.000000,1024.000000) scale(0.100000,-0.100000)"
fill="#000000" stroke="none">
<path d="M7710 9410 c-8 -5 -55 -27 -105 -48 -173 -76 -295 -132 -591 -273
-165 -77 -300 -142 -301 -143 -2 -2 32 -24 75 -51 76 -48 214 -136 220 -140 1
-1 -44 -65 -101 -141 -101 -135 -448 -607 -575 -782 -35 -48 -69 -95 -77 -105
-12 -17 -25 -9 -176 109 -222 172 -207 163 -230 133 -33 -41 -725 -1012 -825
-1156 -16 -24 -33 -43 -39 -43 -5 0 -53 29 -107 63 -53 34 -123 79 -155 99
-32 20 -72 46 -89 57 l-31 21 -55 -78 c-30 -42 -115 -160 -188 -262 -310 -429
-583 -816 -614 -867 -16 -29 224 8 446 67 33 9 53 34 229 283 278 391 298 418
312 410 7 -4 92 -58 190 -120 99 -62 181 -113 182 -113 2 0 25 30 51 68 27 37
150 209 274 382 125 173 284 396 355 495 70 99 136 190 145 202 16 21 17 21
161 -91 79 -61 168 -129 198 -150 52 -38 54 -39 68 -20 19 24 408 560 523 719
48 66 158 217 244 335 87 118 161 222 166 229 9 16 21 7 205 -144 50 -41 91
-71 92 -67 1 4 14 97 28 207 14 110 39 299 56 420 16 121 36 274 44 340 9 66
18 130 21 143 5 23 -2 26 -26 12z m-149 -90 c-24 -21 -41 -26 -41 -12 0 5 12
13 28 19 39 15 40 15 13 -7z"/>
<path d="M7166 7970 c-65 -16 -122 -32 -126 -37 -4 -4 -65 -84 -134 -176
l-126 -169 0 -644 0 -645 33 6 c17 4 205 50 417 103 l385 97 3 681 2 680 -52
24 c-29 13 -91 41 -137 63 -47 21 -98 40 -115 42 -17 2 -84 -9 -150 -25z m181
-176 c-3 -3 -12 -4 -19 -1 -8 3 -5 6 6 6 11 1 17 -2 13 -5z"/>
<path d="M3655 7623 c-16 -3 -205 -40 -420 -84 -214 -44 -543 -111 -730 -149
-187 -38 -396 -80 -465 -94 -157 -33 -232 -68 -298 -141 -65 -70 -99 -142
-112 -231 -11 -83 -7 -116 49 -349 63 -265 221 -916 311 -1285 45 -184 90
-371 101 -415 10 -44 59 -244 109 -445 50 -201 102 -414 116 -475 14 -60 109
-445 210 -855 102 -410 217 -873 255 -1030 43 -174 82 -309 100 -347 42 -87
109 -155 194 -195 65 -30 77 -33 165 -32 92 1 109 5 475 116 209 64 637 193
950 288 314 95 656 198 760 230 105 32 334 101 510 154 176 54 376 114 445
136 117 36 250 77 1164 355 192 58 363 113 380 122 102 52 187 146 226 250 11
30 34 136 50 236 33 203 181 1105 355 2153 122 732 130 806 96 879 -37 80
-117 134 -201 135 -26 0 -308 -65 -650 -151 -333 -82 -832 -207 -1110 -276
-278 -69 -518 -132 -533 -140 -45 -23 -106 -82 -163 -160 -68 -92 -107 -114
-274 -157 -74 -19 -335 -87 -580 -150 -245 -63 -580 -149 -745 -191 -392 -100
-459 -120 -524 -152 -83 -43 -165 -131 -216 -238 -43 -87 -46 -97 -80 -335
-20 -135 -56 -373 -80 -530 -24 -157 -60 -393 -80 -525 -20 -132 -51 -339 -70
-460 -19 -121 -60 -384 -90 -585 -31 -201 -59 -378 -63 -394 -7 -25 -13 -7
-41 110 -73 305 -406 1681 -711 2939 -115 473 -212 879 -216 902 -10 63 3 110
42 153 41 46 46 47 274 95 253 54 743 159 1160 251 140 30 306 66 368 79 63
13 115 25 117 27 1 2 87 121 189 266 103 144 189 262 191 262 2 0 87 -54 189
-120 101 -66 189 -120 194 -120 5 0 38 42 74 93 36 50 109 154 162 230 54 76
96 141 93 143 -5 6 -122 -18 -492 -101 -355 -79 -437 -95 -489 -95 -93 0 -152
43 -246 181 -98 142 -149 185 -265 215 -50 14 -73 15 -130 7z m3934 -2413 c80
-14 147 -47 194 -99 46 -51 64 -86 82 -163 46 -197 -20 -429 -169 -585 -111
-118 -217 -172 -464 -239 l-142 -38 -2 -209 -3 -209 -148 -43 c-101 -29 -150
-39 -153 -31 -2 6 -3 332 -2 724 l3 714 295 84 c253 72 358 97 430 103 8 0 44
-4 79 -9z m-1096 -337 c69 -19 68 -3 4 -183 -29 -80 -50 -124 -59 -124 -7 1
-40 9 -73 18 -149 40 -339 -3 -437 -98 -68 -66 -74 -156 -15 -200 26 -19 46
-21 240 -27 183 -5 219 -9 267 -27 90 -35 141 -91 166 -184 44 -166 -18 -361
-160 -503 -154 -154 -408 -246 -644 -232 -97 5 -202 33 -230 60 -12 13 10 90
79 274 l8 22 59 -23 c77 -30 121 -38 214 -38 221 2 393 112 375 242 -11 83
-54 100 -253 100 -230 1 -323 26 -393 106 -44 50 -62 98 -68 184 -19 264 173
506 482 609 157 52 305 60 438 24z m-1175 -338 c32 -10 52 -21 49 -28 -2 -7
-25 -73 -51 -149 l-48 -136 -56 19 c-67 23 -202 25 -279 5 -114 -31 -194 -84
-224 -151 -26 -56 -24 -89 9 -125 36 -40 94 -50 286 -50 242 0 321 -31 384
-150 29 -57 32 -69 32 -154 0 -159 -44 -273 -152 -391 -96 -105 -219 -177
-388 -227 -85 -25 -277 -35 -362 -19 -87 18 -158 49 -158 71 0 19 88 260 100
273 3 4 31 -4 62 -17 103 -46 206 -56 321 -31 184 39 299 145 273 250 -17 67
-71 85 -256 85 -227 0 -330 27 -398 105 -47 53 -72 131 -72 221 1 291 246 538
605 610 87 17 250 12 323 -11z"/>
<path d="M7275 4891 c-55 -16 -119 -34 -142 -40 l-43 -12 0 -234 c0 -129 3
-235 7 -235 22 0 275 76 308 92 68 35 114 79 143 137 23 47 27 69 27 136 0 97
-18 136 -75 165 -52 27 -104 24 -225 -9z"/>
<path d="M7760 7001 l0 -459 171 43 c94 24 173 45 175 48 3 3 -2 40 -10 83 -9
44 -32 167 -52 274 -20 107 -44 216 -54 241 -34 91 -103 170 -187 213 -18 9
-34 16 -38 16 -3 0 -5 -206 -5 -459z"/>
<path d="M6255 7013 c-11 -3 -87 -20 -170 -38 -82 -19 -196 -44 -252 -56
l-103 -23 0 -538 c0 -590 -5 -551 61 -524 37 16 70 49 113 113 42 63 130 141
188 168 29 13 145 47 258 75 113 28 207 54 210 58 3 4 4 150 2 324 l-3 316
-97 43 c-53 23 -117 52 -142 64 -25 12 -54 20 -65 18z"/>
<path d="M5100 6196 c-47 -13 -160 -38 -252 -57 l-168 -34 0 -277 c0 -153 3
-278 8 -278 4 0 86 21 182 45 96 25 263 68 370 96 107 28 212 55 233 60 l37
10 -2 166 -3 167 -140 62 c-77 35 -149 63 -160 62 -11 0 -58 -10 -105 -22z"/>
<path d="M3910 5628 c-118 -27 -233 -55 -255 -61 l-40 -12 -3 -202 c-3 -194 2
-229 25 -189 4 7 33 35 63 61 92 79 186 117 475 191 143 37 266 71 273 77 22
18 9 51 -28 70 -136 68 -249 117 -270 116 -14 -1 -122 -23 -240 -51z"/>
</g>
</svg>
